<svg width="120" height="121" viewBox="0 0 120 121" xmlns="http://www.w3.org/2000/svg">
<g clip-path="url(#clip0_10503_47046)">
<path d="M118.736 24.6216L95.2995 1.18365C94.6402 0.524121 93.7458 0.153809 92.8134 0.153809H38.9062C33.0907 0.153809 28.3594 4.88514 28.3594 10.7007V57.069C12.5611 58.8235 0.234375 72.2548 0.234375 88.5132C0.234375 105.96 14.4284 120.154 31.875 120.154H109.219C115.034 120.154 119.766 115.422 119.766 109.607V27.1076C119.766 26.1751 119.395 25.2812 118.736 24.6216ZM96.3281 12.1569L103.966 19.7954L107.762 23.5913H96.3281V12.1569ZM7.26562 88.5132C7.26562 74.9436 18.3054 63.9038 31.875 63.9038C45.4446 63.9038 56.4844 74.9436 56.4844 88.5132C56.4844 102.083 45.4446 113.123 31.875 113.123C18.3054 113.123 7.26562 102.083 7.26562 88.5132ZM109.219 113.123H51.738C58.0575 108.012 62.3761 100.523 63.3195 92.0288H99.8438C101.785 92.0288 103.359 90.4547 103.359 88.5132C103.359 86.5716 101.785 84.9976 99.8438 84.9976H63.3192C62.7459 79.8366 60.9277 75.0462 58.1705 70.9351H99.8438C101.785 70.9351 103.359 69.361 103.359 67.4194C103.359 65.4779 101.785 63.9038 99.8438 63.9038H51.738C47.1628 60.204 41.5402 57.7519 35.3906 57.069V10.7007C35.3906 8.76217 36.9677 7.18506 38.9062 7.18506H89.2969V27.1069C89.2969 29.0485 90.8709 30.6226 92.8125 30.6226H112.734V109.607C112.734 111.545 111.157 113.123 109.219 113.123Z" fill="#fff"/>
<path d="M99.8438 42.8101H48.2812C46.3397 42.8101 44.7656 44.3841 44.7656 46.3257C44.7656 48.2672 46.3397 49.8413 48.2812 49.8413H99.8438C101.785 49.8413 103.359 48.2672 103.359 46.3257C103.359 44.3841 101.785 42.8101 99.8438 42.8101Z" fill="#fff"/>
<path d="M45.8452 79.6992C44.4724 78.3265 42.2463 78.3265 40.8734 79.6992L26.9531 93.6195L22.4077 89.074C21.0349 87.7013 18.8088 87.7013 17.4359 89.074C16.0629 90.4467 16.0629 92.6728 17.4359 94.0458L24.4671 101.077C25.1536 101.764 26.0534 102.107 26.9531 102.107C27.8529 102.107 28.7527 101.764 29.4389 101.077L45.8452 84.6708C47.2181 83.2981 47.2181 81.072 45.8452 79.6992Z" fill="#fff"/>
</g>
<defs>
<clipPath id="clip0_10503_47046">
<rect width="120" height="120" transform="translate(0 0.153809)"/>
</clipPath>
</defs>
</svg>
