<?xml version="1.0" encoding="UTF-8"?><svg xmlns="http://www.w3.org/2000/svg" viewBox="0 0 1325 1325" fill="none" preserveAspectRatio="xMidYMid meet" version="1.2" baseProfile="tiny-ps" xml:space="preserve"><title>SEND</title><g><rect width="1325" height="1326" fill="#0B3EE3"></rect><path d="M1156.49 0.919922H169.07C76.0928 0.919922 0.719971 76.2928 0.719971 169.27V1156.69C0.719971 1249.67 76.0928 1325.04 169.07 1325.04H1156.49C1249.47 1325.04 1324.84 1249.67 1324.84 1156.69V169.27C1324.84 76.2928 1249.47 0.919922 1156.49 0.919922Z" fill="#0B3EE3"></path><path fill-rule="evenodd" d="M273.865 641.053C286.423 642.038 300.03 643.107 313.25 647.07C346.48 657 366.42 682.15 366.41 717.59C366.41 767.07 328.41 803.27 270.41 803.27C214.65 803.27 173.29 769.29 173.29 719.07H217.26C217.26 744.18 240.17 760.8 271.17 760.8C303.3 760.8 322.5 743.44 322.5 720.18C322.5 703.95 312.53 693.98 299.6 689.18C289.966 685.588 277.722 684.507 264.846 683.37H264.845C252.555 682.285 239.69 681.148 227.97 677.73C193.99 667.76 175.53 641.54 175.53 608.31C175.53 560.67 213.59 525.59 268.59 525.59C322.5 525.59 362.38 558.46 362.38 606.09H318.07C316.96 583.23 297.02 568.09 268.22 568.09C238.67 568.09 219.84 584.67 219.84 606.09C219.84 620.13 228 630.84 242 636C250.829 639.244 261.868 640.111 273.864 641.053H273.865ZM618.26 799.21H412.57V529.64H618.26V572.85H456.52V642.27H547.73V685.47H456.52V756.01H618.26V799.21ZM836.86 721.67L711.67 529.64H667.73V799.21H711.67V607.19L836.86 799.21H880.8V529.64H836.86V721.67ZM929.14 529.64H1015.92C1094.21 529.64 1150.73 588.39 1150.73 664.8C1150.73 741.21 1094.23 799.21 1015.94 799.21H996.18V842.42L931.47 777.61L996.18 712.87V756.01H1015.18C1068.39 756.01 1106.39 716.49 1106.39 664.8C1106.39 612.36 1068.36 572.85 1015.18 572.85H973.45V666.53L929.14 711.38V529.64Z" fill="white"></path></g></svg>