<svg width="25" height="25" viewBox="0 0 25 25" fill="none" xmlns="http://www.w3.org/2000/svg">
<path d="M5.83639 13.791L11.5182 8.10917C11.5974 8.02972 11.6915 7.96668 11.7951 7.92366C11.8987 7.88064 12.0097 7.8585 12.1219 7.8585C12.2341 7.8585 12.3451 7.88064 12.4487 7.92366C12.5523 7.96668 12.6464 8.02972 12.7256 8.10917L18.4074 13.791C18.5675 13.9511 18.6575 14.1683 18.6575 14.3947C18.6575 14.6211 18.5675 14.8383 18.4074 14.9984C18.2473 15.1585 18.0301 15.2484 17.8037 15.2484C17.5773 15.2484 17.3601 15.1585 17.2 14.9984L12.1212 9.91954L7.04236 14.9991C6.88225 15.1592 6.66509 15.2491 6.43866 15.2491C6.21224 15.2491 5.99508 15.1592 5.83497 14.9991C5.67486 14.839 5.58491 14.6218 5.58491 14.3954C5.58491 14.169 5.67486 13.9518 5.83497 13.7917L5.83639 13.791Z" fill="#17324D"/>
<circle cx="12.5" cy="12.5" r="12" stroke="#3065C7"/>
</svg>
