<svg width="25" height="25" viewBox="0 0 25 25" fill="none" xmlns="http://www.w3.org/2000/svg">
<circle cx="12.5" cy="12.5" r="12.5" fill="#1C3DDA"/>
<path d="M13.7508 18.8211L8.06901 13.1393C7.98956 13.0601 7.92651 12.966 7.8835 12.8624C7.84048 12.7588 7.81834 12.6477 7.81834 12.5356C7.81834 12.4234 7.84048 12.3123 7.8835 12.2087C7.92651 12.1051 7.98956 12.0111 8.06901 11.9319L13.7508 6.25006C13.9109 6.08995 14.1281 6 14.3545 6C14.581 6 14.7981 6.08995 14.9582 6.25006C15.1183 6.41017 15.2083 6.62732 15.2083 6.85375C15.2083 7.08018 15.1183 7.29734 14.9582 7.45744L9.87938 12.5363L14.9589 17.6151C15.119 17.7752 15.209 17.9924 15.209 18.2188C15.209 18.4452 15.119 18.6624 14.9589 18.8225C14.7988 18.9826 14.5817 19.0726 14.3552 19.0726C14.1288 19.0726 13.9116 18.9826 13.7515 18.8225L13.7508 18.8211Z" fill="white"/>
</svg>
