<svg width="138" height="161" viewBox="0 0 138 161" fill="none" xmlns="http://www.w3.org/2000/svg">
<path d="M68.625 22.875C55.0523 22.875 41.7844 26.8998 30.499 34.4404C19.2137 41.981 10.4179 52.6988 5.2238 65.2384C0.0297343 77.7779 -1.32927 91.5761 1.31864 104.888C3.96655 118.2 10.5024 130.428 20.0998 140.025C29.6972 149.623 41.925 156.158 55.237 158.806C68.5489 161.454 82.3471 160.095 94.8867 154.901C107.426 149.707 118.144 140.911 125.685 129.626C133.225 118.341 137.25 105.073 137.25 91.5C137.229 73.3059 129.992 55.863 117.127 42.9978C104.262 30.1326 86.8191 22.8958 68.625 22.875ZM101.265 66.9523L72.6711 95.546C72.1397 96.0774 71.5089 96.4988 70.8147 96.7864C70.1205 97.0739 69.3764 97.2219 68.625 97.2219C67.8736 97.2219 67.1296 97.0739 66.4353 96.7864C65.7411 96.4988 65.1103 96.0774 64.579 95.546C64.0477 95.0147 63.6262 94.3839 63.3387 93.6897C63.0511 92.9955 62.9031 92.2514 62.9031 91.5C62.9031 90.7486 63.0511 90.0045 63.3387 89.3103C63.6262 88.6161 64.0477 87.9853 64.579 87.454L93.1728 58.8602C93.7041 58.3289 94.3349 57.9074 95.0291 57.6199C95.7233 57.3323 96.4674 57.1843 97.2188 57.1843C97.9702 57.1843 98.7143 57.3323 99.4085 57.6199C100.103 57.9074 100.733 58.3289 101.265 58.8602C101.796 59.3916 102.218 60.0223 102.505 60.7166C102.793 61.4108 102.941 62.1548 102.941 62.9063C102.941 63.6577 102.793 64.4017 102.505 65.0959C102.218 65.7902 101.796 66.4209 101.265 66.9523ZM45.75 5.71875C45.75 4.20204 46.3525 2.74746 47.425 1.67498C48.4975 0.602509 49.9521 0 51.4688 0H85.7813C87.298 0 88.7526 0.602509 89.8251 1.67498C90.8975 2.74746 91.5 4.20204 91.5 5.71875C91.5 7.23546 90.8975 8.69004 89.8251 9.76252C88.7526 10.835 87.298 11.4375 85.7813 11.4375H51.4688C49.9521 11.4375 48.4975 10.835 47.425 9.76252C46.3525 8.69004 45.75 7.23546 45.75 5.71875Z" fill="#EBF0FA"/>
</svg>
