<svg width="800" height="800" viewBox="0 0 800 800" fill="none" xmlns="http://www.w3.org/2000/svg">
<path d="M266.795 313.939C253.778 300.921 253.778 279.816 266.795 266.798C279.813 253.781 300.918 253.781 313.936 266.798L400.19 353.053L486.357 266.886C499.377 253.868 520.48 253.868 533.497 266.886C546.517 279.903 546.517 301.009 533.497 314.026L447.33 400.193L533.463 486.323C546.48 499.343 546.48 520.447 533.463 533.463C520.443 546.483 499.34 546.483 486.32 533.463L400.19 447.333L314.032 533.493C301.015 546.51 279.909 546.51 266.892 533.493C253.875 520.473 253.875 499.37 266.892 486.35L353.05 400.193L266.795 313.939Z" fill="#1C3DDA"/>
<path fill-rule="evenodd" clip-rule="evenodd" d="M766.667 400C766.667 602.503 602.503 766.667 400 766.667C197.496 766.667 33.3333 602.503 33.3333 400C33.3333 197.496 197.496 33.3334 400 33.3334C602.503 33.3334 766.667 197.496 766.667 400ZM100.228 400C100.228 565.56 234.44 699.773 400 699.773C565.56 699.773 699.773 565.56 699.773 400C699.773 234.44 565.56 100.228 400 100.228C234.44 100.228 100.228 234.44 100.228 400Z" fill="#1C3DDA"/>
</svg>
