<svg width="175" height="175" viewBox="0 0 175 175" fill="none" xmlns="http://www.w3.org/2000/svg">
<path d="M168.269 80.7692C159.344 80.7692 150.784 77.2236 144.472 70.9122C138.161 64.6009 134.615 56.0409 134.615 47.1154C134.615 45.3303 133.906 43.6183 132.644 42.356C131.382 41.0937 129.67 40.3846 127.885 40.3846C118.959 40.3846 110.399 36.8389 104.088 30.5276C97.7764 24.2163 94.2308 15.6563 94.2308 6.73077C94.2308 4.94566 93.5217 3.23366 92.2594 1.9714C90.9971 0.709132 89.2851 0 87.5 0C70.1942 0 53.2769 5.13178 38.8876 14.7464C24.4983 24.361 13.2832 38.0267 6.66058 54.0152C0.0379124 70.0037 -1.69488 87.597 1.68133 104.57C5.05753 121.544 13.3911 137.135 25.6282 149.372C37.8653 161.609 53.4563 169.942 70.4296 173.319C87.403 176.695 104.996 174.962 120.985 168.339C136.973 161.717 150.639 150.502 160.254 136.112C169.868 121.723 175 104.806 175 87.5C175 85.7149 174.291 84.0029 173.029 82.7406C171.766 81.4783 170.054 80.7692 168.269 80.7692ZM43.3378 63.53C44.7511 62.1216 46.5502 61.1635 48.5077 60.7768C50.4652 60.39 52.4934 60.592 54.3361 61.3572C56.1789 62.1224 57.7537 63.4165 58.8615 65.076C59.9693 66.7355 60.5606 68.6861 60.5606 70.6815C60.5606 72.6768 59.9693 74.6274 58.8615 76.2869C57.7537 77.9465 56.1789 79.2406 54.3361 80.0057C52.4934 80.7709 50.4652 80.9729 48.5077 80.5862C46.5502 80.1995 44.7511 79.2414 43.3378 77.8329C42.3965 76.8949 41.6497 75.7804 41.1402 74.5532C40.6306 73.326 40.3683 72.0103 40.3683 70.6815C40.3683 69.3527 40.6306 68.037 41.1402 66.8098C41.6497 65.5825 42.3965 64.468 43.3378 63.53ZM64.3714 124.948C62.9581 126.357 61.159 127.315 59.2015 127.702C57.244 128.088 55.2158 127.886 53.373 127.121C51.5303 126.356 49.9555 125.062 48.8477 123.402C47.7399 121.743 47.1486 119.792 47.1486 117.797C47.1486 115.802 47.7399 113.851 48.8477 112.191C49.9555 110.532 51.5303 109.238 53.373 108.473C55.2158 107.707 57.244 107.505 59.2015 107.892C61.159 108.279 62.9581 109.237 64.3714 110.645C65.309 111.584 66.0524 112.699 66.559 113.925C67.0657 115.151 67.3256 116.465 67.3241 117.792C67.3225 119.119 67.0594 120.432 66.5499 121.657C66.0404 122.882 65.2944 123.995 64.3546 124.931L64.3714 124.948ZM83.7224 91.2944C82.3139 89.8811 81.3558 88.0821 80.9691 86.1246C80.5824 84.1671 80.7844 82.1389 81.5495 80.2961C82.3147 78.4533 83.6088 76.8786 85.2683 75.7707C86.9279 74.6629 88.8785 74.0716 90.8738 74.0716C92.8691 74.0716 94.8198 74.6629 96.4793 75.7707C98.1388 76.8786 99.4329 78.4533 100.198 80.2961C100.963 82.1389 101.165 84.1671 100.779 86.1246C100.392 88.0821 99.4337 89.8811 98.0253 91.2944C97.0862 92.2346 95.9708 92.9801 94.743 93.4882C93.5152 93.9963 92.1991 94.2571 90.8703 94.2555C89.5415 94.254 88.2261 93.9901 86.9995 93.4791C85.7729 92.9681 84.6592 92.22 83.7224 91.2776V91.2944ZM118.218 131.679C116.804 133.088 115.005 134.046 113.048 134.432C111.09 134.819 109.062 134.617 107.219 133.852C105.376 133.087 103.802 131.793 102.694 130.133C101.586 128.474 100.995 126.523 100.995 124.528C100.995 122.532 101.586 120.582 102.694 118.922C103.802 117.263 105.376 115.969 107.219 115.203C109.062 114.438 111.09 114.236 113.048 114.623C115.005 115.01 116.804 115.968 118.218 117.376C119.155 118.315 119.899 119.429 120.405 120.656C120.912 121.882 121.172 123.196 121.17 124.523C121.169 125.849 120.906 127.163 120.396 128.388C119.887 129.613 119.141 130.726 118.201 131.662L118.218 131.679Z" fill="#EBF0FA"/>
</svg>
