<svg width="800" height="800" viewBox="0 0 800 800" fill="none" xmlns="http://www.w3.org/2000/svg">
<path d="M316.667 66.6667C289.052 66.6667 266.667 89.0524 266.667 116.667V150C266.667 177.614 289.052 200 316.667 200H483.333C510.947 200 533.333 177.614 533.333 150V116.667C533.333 89.0524 510.947 66.6667 483.333 66.6667H316.667Z" fill="#EBF0FA"/>
<path fill-rule="evenodd" clip-rule="evenodd" d="M216.667 134.554C174.736 136.906 148.266 143.588 129.289 162.565C100 191.854 100 238.994 100 333.275V533.277C100 627.557 100 674.697 129.289 703.987C158.579 733.277 205.719 733.277 300 733.277H500C594.28 733.277 641.42 733.277 670.71 703.987C700 674.697 700 627.557 700 533.277V333.275C700 238.994 700 191.854 670.71 162.565C651.733 143.588 625.263 136.906 583.333 134.554V150C583.333 205.228 538.563 250 483.333 250H316.667C261.438 250 216.667 205.228 216.667 150V134.554ZM233.333 325C219.526 325 208.333 336.193 208.333 350C208.333 363.807 219.526 375 233.333 375H250C263.807 375 275 363.807 275 350C275 336.193 263.807 325 250 325H233.333ZM350 325C336.193 325 325 336.193 325 350C325 363.807 336.193 375 350 375H566.667C580.473 375 591.667 363.807 591.667 350C591.667 336.193 580.473 325 566.667 325H350ZM233.333 441.667C219.526 441.667 208.333 452.86 208.333 466.667C208.333 480.473 219.526 491.667 233.333 491.667H250C263.807 491.667 275 480.473 275 466.667C275 452.86 263.807 441.667 250 441.667H233.333ZM350 441.667C336.193 441.667 325 452.86 325 466.667C325 480.473 336.193 491.667 350 491.667H566.667C580.473 491.667 591.667 480.473 591.667 466.667C591.667 452.86 580.473 441.667 566.667 441.667H350ZM233.333 558.333C219.526 558.333 208.333 569.527 208.333 583.333C208.333 597.14 219.526 608.333 233.333 608.333H250C263.807 608.333 275 597.14 275 583.333C275 569.527 263.807 558.333 250 558.333H233.333ZM350 558.333C336.193 558.333 325 569.527 325 583.333C325 597.14 336.193 608.333 350 608.333H566.667C580.473 608.333 591.667 597.14 591.667 583.333C591.667 569.527 580.473 558.333 566.667 558.333H350Z" fill="#EBF0FA"/>
</svg>
