<svg width="203" height="196" viewBox="0 0 203 196" fill="none" xmlns="http://www.w3.org/2000/svg">
<path d="M175.794 48.5323C175.243 65.619 151.72 79.5217 151.72 79.5217C151.72 79.5217 129.141 64.1323 129.692 47.0456C129.88 41.219 132.489 35.7094 136.945 31.7288C141.401 27.7483 147.338 25.6227 153.452 25.8199C159.565 26.017 165.353 28.5207 169.543 32.7801C173.733 37.0394 175.981 42.7057 175.794 48.5323Z" fill="#EBF0FA"/>
<path d="M150.558 115.549L149.69 142.455C149.24 156.423 137.689 167.385 123.892 166.94C110.094 166.495 99.2735 154.811 99.7239 140.844L102.525 55.4449C103.013 40.3128 92.2232 27.6852 78.4251 27.2402C64.6275 26.7952 53.0466 38.7014 52.5586 53.8336L50.6722 112.328M173.286 126.295L150.977 102.537L127.185 124.808M175.794 48.5323C175.243 65.619 151.72 79.5217 151.72 79.5217C151.72 79.5217 129.141 64.1323 129.692 47.0456C129.88 41.219 132.489 35.7094 136.945 31.7288C141.401 27.7483 147.338 25.6227 153.452 25.8199C159.565 26.017 165.353 28.5207 169.543 32.7801C173.733 37.0394 175.981 42.7057 175.794 48.5323Z" stroke="#EBF0FA" stroke-width="15" stroke-linecap="round" stroke-linejoin="round"/>
<path d="M72.8766 137.372C72.3228 154.544 48.8601 168.523 48.8601 168.523C48.8601 168.523 26.3467 153.062 26.9005 135.889C27.0894 130.033 29.6924 124.495 34.137 120.494C38.5817 116.492 44.5038 114.354 50.6006 114.551C56.6974 114.747 62.4694 117.262 66.6469 121.542C70.8248 125.822 73.0655 131.516 72.8766 137.372Z" fill="#EBF0FA" stroke="#EBF0FA" stroke-width="15" stroke-linecap="round" stroke-linejoin="round"/>
<path d="M152.515 56.8059C156.931 56.9483 160.626 53.4839 160.768 49.0679C160.911 44.6519 157.446 40.9566 153.031 40.8142C148.615 40.6718 144.919 44.1362 144.777 48.5522C144.634 52.9681 148.099 56.6635 152.515 56.8059Z" fill="white"/>
<path d="M49.6012 145.535C54.0172 145.677 57.7053 142.437 57.8388 138.297C57.9723 134.157 54.5007 130.685 50.0847 130.543C45.6687 130.4 41.9806 133.641 41.8471 137.781C41.7136 141.921 45.1852 145.392 49.6012 145.535Z" fill="white"/>
</svg>
