<svg width="213" height="181" viewBox="0 0 213 181" fill="none" xmlns="http://www.w3.org/2000/svg">
<path d="M211.552 95.2135L181.253 19.7969C180.687 18.4022 179.714 17.2081 178.46 16.3681C177.207 15.5282 175.729 15.0807 174.218 15.0833C173.667 15.0917 173.118 15.1581 172.58 15.2813L113.621 28.2812V7.54167C113.621 5.54149 112.823 3.62324 111.402 2.2089C109.982 0.794568 108.055 0 106.046 0C104.037 0 102.11 0.794568 100.69 2.2089C99.2694 3.62324 98.4713 5.54149 98.4713 7.54167V31.6561L36.2356 45.448C35.0358 45.7087 33.9176 46.2559 32.9774 47.0425C32.0372 47.8292 31.3032 48.8317 30.8387 49.9635L0.539843 125.38C0.177386 126.279 -0.00592004 127.24 0.000145764 128.208C0.000145764 150.183 23.2356 158.375 37.8737 158.375C52.5118 158.375 75.7472 150.183 75.7472 128.208C75.7533 127.24 75.57 126.279 75.2075 125.38L48.2131 58.2311L98.4713 47.1354V165.917H83.3219C81.313 165.917 79.3863 166.711 77.9658 168.126C76.5452 169.54 75.7472 171.458 75.7472 173.458C75.7472 175.459 76.5452 177.377 77.9658 178.791C79.3863 180.205 81.313 181 83.3219 181H128.77C130.779 181 132.706 180.205 134.126 178.791C135.547 177.377 136.345 175.459 136.345 173.458C136.345 171.458 135.547 169.54 134.126 168.126C132.706 166.711 130.779 165.917 128.77 165.917H113.621V43.7605L161.909 33.0891L136.885 95.2135C136.522 96.1125 136.339 97.073 136.345 98.0417C136.345 120.016 159.58 128.208 174.218 128.208C188.856 128.208 212.092 120.016 212.092 98.0417C212.098 97.073 211.915 96.1125 211.552 95.2135ZM60.0581 128.208H15.7366L37.8737 73.0976L60.0581 128.208ZM152.129 98.0417L174.218 42.9309L196.355 98.0417H152.129Z" fill="#EBF0FA"/>
</svg>
