<svg width="195" height="132" viewBox="0 0 195 132" fill="none" xmlns="http://www.w3.org/2000/svg">
<path d="M66.3899 25.3422C73.3879 25.3422 79.061 19.6692 79.061 12.6711C79.061 5.67305 73.3879 0 66.3899 0C59.3918 0 53.7188 5.67305 53.7188 12.6711C53.7188 19.6692 59.3918 25.3422 66.3899 25.3422Z" fill="#EBF0FA"/>
<path d="M78.5812 35.4257C78.5812 33.3095 78.9392 31.2769 79.5895 29.3784C73.1409 29.3784 59.6355 29.3784 53.1865 29.3784C53.8368 31.2769 54.1948 33.3095 54.1948 35.4257C54.1948 39.3845 52.9558 43.0579 50.8499 46.0851C56.7462 46.0855 61.9011 47.6225 66.3882 52.091C70.9042 47.5925 76.0781 46.0851 81.9262 46.0851C79.8206 43.0579 78.5812 39.3849 78.5812 35.4257Z" fill="#EBF0FA"/>
<path d="M128.207 25.3422C135.205 25.3422 140.878 19.6692 140.878 12.6711C140.878 5.67305 135.205 0 128.207 0C121.209 0 115.536 5.67305 115.536 12.6711C115.536 19.6692 121.209 25.3422 128.207 25.3422Z" fill="#EBF0FA"/>
<path d="M140.4 35.4257C140.4 33.3095 140.758 31.2769 141.408 29.3784C134.96 29.3784 121.454 29.3784 115.005 29.3784C115.655 31.2769 116.013 33.3095 116.013 35.4257C116.013 39.3845 114.774 43.0579 112.668 46.0851C118.565 46.0855 123.72 47.6225 128.207 52.091C132.723 47.5925 137.897 46.0851 143.745 46.0851C141.639 43.0579 140.4 39.3849 140.4 35.4257Z" fill="#EBF0FA"/>
<path d="M35.4785 22.7571C28.4818 22.7571 22.8097 28.4292 22.8097 35.4259C22.8097 42.4298 28.4906 48.0948 35.4785 48.0948C42.4737 48.0948 48.1474 42.4245 48.1474 35.4259C48.1474 28.4269 42.4733 22.7571 35.4785 22.7571Z" fill="#EBF0FA"/>
<path d="M140.452 69.6082C140.452 69.6338 140.451 69.6562 140.451 69.6686C140.451 69.6582 140.452 69.6386 140.452 69.6082Z" fill="#EBF0FA"/>
<path d="M175.523 52.1338C172.113 52.1338 146.118 52.1338 142.707 52.1338C134.764 52.1338 128.245 58.6029 128.206 66.5262C128.166 58.614 121.655 52.1338 113.705 52.1338C110.295 52.1338 84.2992 52.1338 80.8885 52.1338C72.9188 52.1338 66.4272 58.6288 66.3873 66.5266C66.3474 58.5729 59.7996 52.1338 51.8862 52.1338C48.4758 52.1338 22.4806 52.1338 19.0699 52.1338C11.1428 52.1338 4.60863 58.579 4.56873 66.5266V80.7024H16.7598L16.8305 66.5882C16.8389 64.9683 19.2896 64.971 19.2896 66.5943V80.7028H51.6676V66.5947C51.6676 64.9471 54.1183 65.0124 54.1267 66.5882L54.1974 80.7024C59.0809 80.7024 73.6942 80.7024 78.5777 80.7024L78.6484 66.5882C78.6563 64.9972 81.1074 64.9444 81.1074 66.5943V80.7028H113.485V66.5947C113.485 65.1017 115.626 64.9406 115.919 66.3411C115.935 66.421 115.945 66.5038 115.945 66.5886L116.016 80.7028C120.899 80.7028 135.513 80.7028 140.396 80.7028C140.455 68.8773 140.453 69.3049 140.452 69.5961C140.453 69.3787 140.457 68.6444 140.467 66.5886C140.475 64.9706 142.926 64.9752 142.926 66.5947V80.7032H175.304V66.595C175.304 64.9547 177.756 64.9949 177.764 66.5886L177.834 80.7028H190.024V66.527C189.984 58.5896 183.459 52.1338 175.523 52.1338Z" fill="#EBF0FA"/>
<path d="M97.2973 22.7571C90.3006 22.7571 84.6284 28.4288 84.6284 35.4259C84.6288 42.4234 90.3017 48.0948 97.2973 48.0948C104.318 48.0948 109.966 42.393 109.966 35.4259C109.966 28.4292 104.295 22.7571 97.2973 22.7571Z" fill="#EBF0FA"/>
<path d="M159.116 22.7571C152.119 22.7571 146.448 28.4296 146.448 35.4259C146.448 42.4675 152.17 48.0948 159.116 48.0948C166.109 48.0948 171.785 42.4268 171.785 35.4259C171.785 28.4292 166.114 22.7571 159.116 22.7571Z" fill="#EBF0FA"/>
<path d="M189.867 87.5562H4.72882C2.11698 87.5558 0 89.6731 0 92.285C0 94.8968 2.11698 97.0138 4.72882 97.0138H10.7514V126.64C10.7514 129.204 12.83 131.283 15.3943 131.283H179.201C181.765 131.283 183.844 129.204 183.844 126.64V97.0138H189.867C192.478 97.0138 194.596 94.8964 194.596 92.285C194.595 89.6731 192.478 87.5562 189.867 87.5562Z" fill="#EBF0FA"/>
</svg>
