<svg width="230" height="230" viewBox="0 0 230 230" fill="none" xmlns="http://www.w3.org/2000/svg">
<g opacity="0.1">
<path fill-rule="evenodd" clip-rule="evenodd" d="M28.75 99.8267C28.75 69.1828 28.75 53.861 32.3679 48.7064C35.9857 43.5518 50.3922 38.6204 79.2054 28.7576L84.6948 26.8786C99.7146 21.7373 107.224 19.1667 115 19.1667C122.776 19.1667 130.285 21.7373 145.305 26.8786L150.795 28.7576C179.608 38.6204 194.015 43.5518 197.632 48.7064C201.25 53.861 201.25 69.1828 201.25 99.8267V114.918C201.25 168.948 160.626 195.169 135.138 206.303C128.225 209.323 124.768 210.833 115 210.833C105.232 210.833 101.775 209.323 94.8612 206.303C69.3734 195.169 28.75 168.948 28.75 114.918V99.8267ZM134.167 86.25C134.167 96.8357 125.586 105.417 115 105.417C104.414 105.417 95.8333 96.8357 95.8333 86.25C95.8333 75.6645 104.414 67.0833 115 67.0833C125.586 67.0833 134.167 75.6645 134.167 86.25ZM115 162.917C153.333 162.917 153.333 154.336 153.333 143.75C153.333 133.164 136.171 124.583 115 124.583C93.8291 124.583 76.6667 133.164 76.6667 143.75C76.6667 154.336 76.6667 162.917 115 162.917Z" fill="#3065C7"/>
</g>
</svg>
