<svg width="22" height="24" viewBox="0 0 22 24" fill="none" xmlns="http://www.w3.org/2000/svg">
<g clip-path="url(#clip0_177_6)">
<path d="M16.7038 11.1235C16.6004 11.074 16.4954 11.0263 16.3891 10.9806C16.2038 7.56728 14.3387 5.61312 11.2069 5.59312C11.1927 5.59304 11.1786 5.59304 11.1644 5.59304C9.29127 5.59304 7.73335 6.39261 6.77447 7.84759L8.49684 9.0291C9.21317 7.94229 10.3373 7.7106 11.1653 7.7106C11.1748 7.7106 11.1844 7.7106 11.1939 7.71069C12.2251 7.71726 13.0032 8.01708 13.5068 8.60175C13.8733 9.02741 14.1184 9.61563 14.2398 10.358C13.3256 10.2026 12.3368 10.1548 11.2798 10.2154C8.3023 10.3869 6.3881 12.1235 6.51667 14.5365C6.5819 15.7605 7.19168 16.8135 8.23359 17.5014C9.11452 18.0829 10.2491 18.3673 11.4282 18.3029C12.9854 18.2175 14.2071 17.6234 15.0593 16.537C15.7066 15.712 16.1159 14.6429 16.2967 13.2957C17.0388 13.7436 17.5888 14.333 17.8926 15.0415C18.4091 16.2459 18.4392 18.225 16.8243 19.8385C15.4094 21.252 13.7087 21.8635 11.1384 21.8824C8.28724 21.8612 6.13094 20.9469 4.72898 19.1646C3.41615 17.4958 2.73768 15.0852 2.71237 12C2.73768 8.91473 3.41615 6.5042 4.72898 4.83534C6.13094 3.05311 8.2872 2.13875 11.1383 2.11756C14.0102 2.13891 16.2041 3.05767 17.6597 4.8485C18.3734 5.7267 18.9116 6.8311 19.2663 8.11879L21.2847 7.58028C20.8547 5.99528 20.1781 4.62946 19.2573 3.49675C17.3912 1.20084 14.6619 0.0243935 11.1454 0H11.1313C7.62192 0.0243088 4.92323 1.20522 3.11025 3.50991C1.49695 5.5608 0.664769 8.41446 0.636807 11.9916L0.636719 12L0.636807 12.0084C0.664769 15.5855 1.49695 18.4393 3.11025 20.4901C4.92323 22.7948 7.62192 23.9757 11.1313 24H11.1454C14.2654 23.9784 16.4647 23.1615 18.2764 21.3514C20.6468 18.9832 20.5754 16.0149 19.7942 14.1926C19.2337 12.8859 18.1651 11.8245 16.7038 11.1235ZM11.3167 16.1884C10.0117 16.2619 8.65602 15.6761 8.58917 14.4215C8.53962 13.4913 9.25119 12.4532 11.3968 12.3296C11.6426 12.3154 11.8837 12.3085 12.1206 12.3085C12.8999 12.3085 13.6291 12.3842 14.2919 12.5291C14.0447 15.6169 12.5944 16.1182 11.3167 16.1884Z" fill="#1E314B"/>
</g>
<defs>
<clipPath id="clip0_177_6">
<rect width="22" height="24" fill="white"/>
</clipPath>
</defs>
</svg>
