<svg width="328" height="361" viewBox="0 0 328 361" fill="none" xmlns="http://www.w3.org/2000/svg">
<path d="M239.644 150.302H181.083C157.073 150.302 135.292 161.459 119.351 179.485H211.346V342.921H167.418C178.9 345.677 178.892 349.425 178.892 353.3C178.892 354.744 178.892 356.367 177.814 357.991C192.161 359.848 205.574 360.636 217.989 360.636C282.932 360.636 320.574 339.236 322.901 337.87L327.516 335.162L328.004 335.167V252.397C328.004 196.101 288.364 150.302 239.644 150.302ZM169.244 353.261C169.244 357.315 140.324 360.602 104.646 360.602C68.9649 360.602 40.0486 357.315 40.0486 353.261C40.0486 350.349 54.9675 347.86 76.559 346.679V335.595H0V186.738H201.69V335.59H125.136V346.319C150.762 347.291 169.244 350.023 169.244 353.261ZM188.442 322.829V198.221H13.2444V322.829H188.442ZM48.3032 312.766H59.8731V239.844H48.3032V312.766ZM65.6581 312.766H77.228V255.464H65.6581V312.766ZM82.487 312.766H94.0569V219.183H82.487V312.766ZM135.031 312.766H146.601V239.844H135.031V312.766ZM117.676 312.766H129.246V255.464H117.676V312.766ZM100.847 312.766H112.417V229.514H100.847V312.766Z" fill="#EBF0FA"/>
<path d="M282.346 71C282.346 110.212 250.558 142 211.346 142C172.134 142 140.346 110.212 140.346 71C140.346 31.7878 172.134 0 211.346 0C250.558 0 282.346 31.7878 282.346 71Z" fill="#EBF0FA"/>
</svg>
